<?xml version="1.0" encoding="UTF-8"?>
<svg id="Layer_2" data-name="Layer 2" xmlns="http://www.w3.org/2000/svg" viewBox="0 0 263.02 233.18">
  <defs>
    <style>
      .cls-1 {
        fill: #5d63ad;
        stroke: #9ba1d1;
        stroke-miterlimit: 10;
        stroke-width: 8px;
      }

      .cls-2 {
        fill: #f1f2f2;
        stroke-width: 0px;
      }
    </style>
  </defs>
  <g id="Layer_1-2" data-name="Layer 1">
    <path class="cls-1" d="M187.19,4h-111.36c-5.77,0-11.1,3.08-13.98,8.07L6.16,108.51c-2.88,5-2.88,11.15,0,16.15l55.68,96.44c2.88,5,8.22,8.07,13.98,8.07h111.36c5.77,0,11.1-3.08,13.98-8.07l55.68-96.44c2.88-5,2.88-11.15,0-16.15L201.17,12.07c-2.88-5-8.22-8.07-13.98-8.07Z"/>
    <path class="cls-2" d="M83.09,147.39c-11.45,3.21-15.84,16.42-7.54,25.04,2.33,2.5,5.43,3.91,8.06,3.86,3.07-.04,6.23-1.95,8.79-3.99,2.92-2.38,5.26-5.37,6.87-8.79,2.59-5.32,3.62-12.06,4.14-18.24,1.93-20.78-.58-41.58-.45-62.63-.02-6.06.33-12.35.93-18.45-.15.86.19-2.55,1.83-3.72,1.57-1.44,3.45-1.85,5.26-1.51,1.81.26,3.82,1.94,4.4,3.72.48,1.57.15.49.26.87l.03.1.2.84c6.01,25.11,15,49.56,27.1,72.39,4.93,9.37,10.23,18.53,17.42,26.19.31.32.58.58.75.72.39.33.3.08-.31-.04-.58-.09-.85.04-.84.02,0,0,.02-.03.05-.07,1.17-1.89,1.52-4.92,1.95-7.27,1.94-13.42-.52-26.18-1.61-40.23-1.72-19.49.96-40.17,9.85-57.76,4.64-8.68,10.82-16.64,19.08-22.16-1.46,4.77-3.06,9.16-4.57,13.52-5.66,16.87-11.18,33.94-11,51.87.05,18.73,5.37,38.17,2.06,57-.97,5.42-2.13,11.28-6.62,15.27-5.73,5.12-13.77,4.22-18.64-1.73-4.59-5.12-8.58-10.99-11.97-16.82-15.21-27.1-26.5-56.28-33.66-86.49,0,0-.41-1.74-.41-1.74,0,0-.2-.87-.2-.87,0,0-.03-.11-.03-.11.72,3.62,5.89,6.13,9.5,2.79,1.58-1.12,1.92-4.45,1.76-3.52v.1s-.03.21-.03.21c0,0-.3,3.35-.3,3.35-2.34,27.75,3.67,56.14-.23,84.6-1.76,13.76-8.82,26.75-22.11,32.72-19.08,8.54-37.67-12.7-31.22-31.28.99-2.96,2.68-5.8,5.15-7.82,4.47-3.84,12.48-4.84,16.33.05h0Z"/>
  </g>
</svg>